<svg width="90" height="102" viewBox="0 0 90 102" fill="none" xmlns="http://www.w3.org/2000/svg">
<path d="M87.0455 42.3496L47.2639 2.56209C44.9177 0.221667 41.1223 0.249359 38.8068 2.55911C36.4781 4.89376 36.4781 8.6845 38.8068 11.0162L78.5943 50.8008C80.9251 53.1317 84.7145 53.1317 87.0455 50.8008C89.3828 48.4636 89.3828 44.6864 87.0455 42.3496Z" fill="#FACA10"/>
<path d="M35.8552 16.5162L35.5558 18.0172C33.4466 28.5674 28.3207 38.5903 21.3877 46.7139L43.0323 68.3584C51.1548 61.4268 61.0397 56.1632 71.5903 54.0515L73.094 53.7521L35.8552 16.5162Z" fill="#FACA10"/>
<path d="M17.4196 51.1971L2.62693 65.9868C-0.868369 69.4821 -0.882912 75.1566 2.62693 78.6665L11.0782 87.1178C14.5735 90.6131 20.2481 90.6274 23.7579 87.1178L38.5491 72.3265L17.4196 51.1971ZM19.5325 74.441C18.3652 75.6083 16.4741 75.6083 15.3068 74.441C14.1396 73.2738 14.1396 71.3826 15.3068 70.2154L19.5325 65.9898C20.6997 64.8225 22.5909 64.8225 23.7581 65.9898C24.9253 67.157 24.9253 69.0482 23.7581 70.2154L19.5325 74.441Z" fill="#FACA10"/>
<path d="M51.0261 88.708L55.0911 84.6429C58.6012 81.1334 58.5896 75.4589 55.0913 71.9664L52.072 68.9448C50.4031 70.0658 48.8094 71.2839 47.2598 72.5836L50.8657 76.1948C52.0301 77.3533 52.0383 79.2387 50.8657 80.4175L46.7335 84.5497L40.6609 78.6661L32.2092 87.1178L45.7675 100.256C48.0812 102.575 51.8801 102.589 54.2158 100.253C56.5474 97.9211 56.5474 94.1303 54.2158 91.7984L51.0261 88.708Z" fill="#FACA10"/>
<path d="M63.0984 0C61.4467 0 60.1101 1.33656 60.1101 2.98829V8.96486C60.1101 10.6166 61.4467 11.9532 63.0984 11.9532C64.7501 11.9532 66.0867 10.6166 66.0867 8.96486V2.98829C66.0867 1.33656 64.7501 0 63.0984 0Z" fill="#FACA10"/>
<path d="M87.0047 23.9062H81.0281C79.3764 23.9062 78.0398 25.2428 78.0398 26.8945C78.0398 28.5463 79.3764 29.8828 81.0281 29.8828H87.0047C88.6564 29.8828 89.9929 28.5463 89.9929 26.8945C89.9929 25.2428 88.6564 23.9062 87.0047 23.9062Z" fill="#FACA10"/>
<path d="M83.1409 6.85198C81.9736 5.68476 80.0825 5.68476 78.9152 6.85198L72.9387 12.8286C71.7714 13.9958 71.7714 15.887 72.9387 17.0542C74.1059 18.2214 75.9971 18.2216 77.1643 17.0542L83.1409 11.0776C84.3081 9.91039 84.3081 8.01921 83.1409 6.85198Z" fill="#FACA10"/>
</svg>
