<svg width="85" height="102" viewBox="0 0 85 102" fill="none" xmlns="http://www.w3.org/2000/svg">
<path d="M67.6528 90.1168L67.6716 96.8069C67.6798 99.678 70.0096 102 72.8789 102C72.8837 102 72.8891 102 72.8939 102C75.7701 101.992 78.0949 99.6534 78.0868 96.7775L78.0679 90.1168H67.6528Z" fill="#FACA10"/>
<path d="M54.9001 88.7844L54.8994 96.7916C54.8992 99.6678 57.2305 101.999 60.1066 102C60.1069 102 60.1069 102 60.1071 102C62.9828 102 65.3145 99.6682 65.3145 96.7923L65.315 90.1163H58.6862C57.2548 90.1168 55.9384 89.6171 54.9001 88.7844Z" fill="#FACA10"/>
<path d="M11.6475 17.9879C16.6148 17.9879 20.6415 13.9612 20.6415 8.99397C20.6415 4.02674 16.6148 0 11.6475 0C6.6803 0 2.65356 4.02674 2.65356 8.99397C2.65356 13.9612 6.6803 17.9879 11.6475 17.9879Z" fill="#FACA10"/>
<path d="M34.0624 36.6254L20.4355 35.0267L11.5239 26.172L19.9768 30.6037L23.0933 30.9692V27.1198C23.0933 23.7644 20.3733 21.0441 17.0176 21.0441H6.18271C2.82724 21.0441 0.106956 23.7644 0.106956 27.1198L2.15809e-05 96.7775C-0.00817005 99.6534 2.3167 101.992 5.19285 102C5.19795 102 5.20282 102 5.20791 102C8.07697 102 10.4069 99.678 10.4151 96.8069L10.5241 58.3069C10.5241 58.302 10.5238 58.2972 10.5238 58.2923H12.7697L12.7726 96.7928C12.7728 99.6687 15.1045 102 17.9804 102C20.8564 102 23.1879 99.668 23.1877 96.7921C23.1841 50.4702 23.0931 48.4471 23.0931 48.4471L17.4292 47.7827C15.697 47.5794 13.5689 47.6206 12.3229 45.3192L5.40606 32.329L15.3815 42.2409C16.0707 42.9257 16.9698 43.3594 17.9346 43.4725L33.0508 45.2459C35.4337 45.5251 37.5874 43.8197 37.8664 41.4415C38.146 39.0608 36.4428 36.9046 34.0624 36.6254Z" fill="#FACA10"/>
<path d="M66.4398 17.9879C71.407 17.9879 75.4337 13.9612 75.4337 8.99397C75.4337 4.02674 71.407 0 66.4398 0C61.4725 0 57.4458 4.02674 57.4458 8.99397C57.4458 13.9612 61.4725 17.9879 66.4398 17.9879Z" fill="#FACA10"/>
<path d="M82.6447 66.6489H78.0959C78.0959 63.9003 78.0959 63.4229 78.0959 60.2196C78.0959 58.9968 77.1047 58.0056 75.8819 58.0056H75.1927C75.4402 56.4645 77.0974 46.1461 77.3615 44.5009C77.4769 43.7836 77.41 43.049 77.1676 42.3642L72.0292 27.8551L72.3376 28.3134L77.9801 36.7V27.1198C77.9801 23.7644 75.2598 21.0441 71.9043 21.0441H61.0695C57.714 21.0441 54.9937 23.7644 54.9937 27.1198V28.6636L41.0839 36.6148C41.9803 38.1737 42.4023 40.0234 42.1767 41.9467C41.8893 44.3971 40.6059 46.4868 38.78 47.8637C38.9926 47.7833 39.202 47.6875 39.4057 47.5712L54.9935 38.6607L54.9016 64.2157C56.7288 62.7521 58.5356 62.8852 59.4708 62.8852V60.2196C59.4708 57.8776 60.8419 55.7868 62.9031 54.8124L64.881 42.4966L64.0882 33.4621L63.8478 30.7529L68.6164 44.218C68.3866 45.6484 66.659 56.4054 66.4022 58.0056H65.4487C64.2259 58.0056 63.2347 58.9968 63.2347 60.2196C63.2347 63.3957 63.2347 63.9189 63.2347 66.6489H58.6861C57.4153 66.6489 56.3854 67.679 56.3854 68.9496V84.0521C56.3854 85.3229 57.4156 86.3529 58.6861 86.3529H82.6445C83.9153 86.3529 84.9452 85.3227 84.9452 84.0521V68.9496C84.9454 67.679 83.9153 66.6489 82.6447 66.6489ZM69.8781 63.7304C70.1113 63.7679 70.3428 63.786 70.5715 63.786C71.547 63.786 72.4658 63.453 73.2059 62.8849H73.6678V66.6487H67.6626V62.8849H67.9183C68.4727 63.3125 69.1384 63.6118 69.8781 63.7304Z" fill="#FACA10"/>
</svg>
