<svg width="102" height="102" viewBox="0 0 102 102" fill="none" xmlns="http://www.w3.org/2000/svg">
<path d="M19.125 26.5625V7.4375C19.125 6.3325 19.2525 5.27 19.55 4.25H7.4375C3.3575 4.25 0 7.6075 0 11.6875V30.8125C0 34.8925 3.3575 38.25 7.4375 38.25H9.01L14.45 45.475C15.045 46.24 15.9375 46.7075 16.8725 46.75H17C17.935 46.75 18.785 46.3675 19.38 45.645L25.755 38.3775C21.8025 35.9125 19.125 31.535 19.125 26.5625Z" fill="#FACA10"/>
<path d="M94.5626 4.25H82.4501C82.7476 5.27 82.8751 6.3325 82.8751 7.4375V26.5625C82.8751 31.535 80.1976 35.9125 76.2451 38.3775L82.6201 45.645C83.2151 46.3675 84.0651 46.75 85.0001 46.75H85.1276C86.0626 46.7075 86.9551 46.24 87.5501 45.475L92.9476 38.25H94.5626C98.6426 38.25 102 34.8925 102 30.8125V11.6875C102 7.6075 98.6426 4.25 94.5626 4.25Z" fill="#FACA10"/>
<path d="M51.5 42.5C51.4618 42.5 51.4193 42.5 51.381 42.5C50.4205 42.4618 49.528 41.9943 48.95 41.225L43.5313 34H33.4375C29.3363 34 26 30.6638 26 26.5625V7.4375C26 3.33625 29.3363 0 33.4375 0H69.5625C73.6638 0 77 3.33625 77 7.4375V26.5625C77 30.6638 73.6638 34 69.5625 34H60.3825L53.897 41.412C53.2935 42.1048 52.418 42.5 51.5 42.5Z" fill="#FACA10"/>
<path d="M17 72.25C21.6944 72.25 25.5 68.4444 25.5 63.75C25.5 59.0556 21.6944 55.25 17 55.25C12.3056 55.25 8.5 59.0556 8.5 63.75C8.5 68.4444 12.3056 72.25 17 72.25Z" fill="#FACA10"/>
<path d="M28.3475 78.2001C24.055 81.4301 21.25 86.6151 21.25 92.4376V93.5001H3.1875C1.445 93.5001 0 92.0551 0 90.3126V88.1876C0 81.7276 5.2275 76.5001 11.6875 76.5001H22.3125C24.5225 76.5001 26.605 77.1376 28.3475 78.2001Z" fill="#FACA10"/>
<path d="M85 72.25C89.6944 72.25 93.5 68.4444 93.5 63.75C93.5 59.0556 89.6944 55.25 85 55.25C80.3056 55.25 76.5 59.0556 76.5 63.75C76.5 68.4444 80.3056 72.25 85 72.25Z" fill="#FACA10"/>
<path d="M102 88.1876V90.3126C102 92.0551 100.555 93.5001 98.8124 93.5001H80.7498V92.4376C80.7498 86.6151 77.9448 81.4301 73.6523 78.2001C75.3948 77.1376 77.4773 76.5001 79.6873 76.5001H90.3124C96.7724 76.5001 102 81.7276 102 88.1876Z" fill="#FACA10"/>
<path d="M51 74.375C58.0416 74.375 63.75 68.6666 63.75 61.625C63.75 54.5834 58.0416 48.875 51 48.875C43.9584 48.875 38.25 54.5834 38.25 61.625C38.25 68.6666 43.9584 74.375 51 74.375Z" fill="#FACA10"/>
<path d="M62.6875 80.75H39.3125C32.8653 80.75 27.625 85.9903 27.625 92.4375V98.8125C27.625 100.572 29.053 102 30.8125 102H71.1875C72.947 102 74.375 100.572 74.375 98.8125V92.4375C74.375 85.9903 69.1348 80.75 62.6875 80.75Z" fill="#FACA10"/>
</svg>
